<svg width="38" height="34" viewBox="0 0 38 34" xmlns="http://www.w3.org/2000/svg"><title>57F360B3-2F87-4241-84A8-768CE450CC5D</title><g fill="none" fill-rule="evenodd"><path d="M3.235 33.13a5.56 5.56 0 0 1-2.047-7.61L14.235 3.005C15.779.34 19.199-.572 21.873.965a5.56 5.56 0 0 1 2.047 7.611L10.873 31.091c-1.544 2.664-4.964 3.577-7.638 2.04" fill="#F9C823"/><path d="M34.92 33.13c-2.675 1.538-6.094.625-7.638-2.039L14.235 8.576a5.56 5.56 0 0 1 2.047-7.61c2.674-1.538 6.094-.626 7.638 2.04L36.966 25.52a5.56 5.56 0 0 1-2.046 7.61" fill="#3C81B5"/><path d="M23.69 2.646c-.036-.054-.07-.11-.11-.161-.066-.091-.139-.177-.21-.262-.048-.058-.094-.117-.144-.173-.064-.07-.132-.135-.198-.2-.066-.066-.13-.133-.2-.196-.057-.051-.116-.097-.175-.145-.085-.071-.17-.143-.261-.209-.053-.039-.109-.074-.163-.11-.1-.068-.2-.135-.305-.197-.06-.036-.124-.068-.186-.102A5.384 5.384 0 0 0 21.44.74c-.08-.037-.16-.07-.24-.103a5.391 5.391 0 0 0-.254-.099 5.562 5.562 0 0 0-.51-.153A5.701 5.701 0 0 0 18.252.28a6.763 6.763 0 0 0-.532.106 6.37 6.37 0 0 0-.51.153c-.085.03-.17.064-.253.099-.081.033-.161.066-.24.103-.1.047-.2.098-.298.151-.062.034-.125.066-.186.102-.105.062-.206.13-.305.196-.055.037-.11.072-.163.111-.09.066-.176.138-.262.21-.058.047-.118.093-.174.144-.07.063-.134.13-.2.195-.067.067-.134.131-.197.2-.05.057-.097.116-.145.174-.072.085-.144.17-.21.262-.04.052-.074.107-.11.16-.069.1-.136.2-.199.305a5.548 5.548 0 0 0-.032 5.62l4.843 8.357 4.842-8.356a5.549 5.549 0 0 0-.23-5.925" fill="#72AC42"/></g></svg>